<svg width="745" height="685" viewBox="0 0 745 685" fill="none" xmlns="http://www.w3.org/2000/svg">
<path fill-rule="evenodd" clip-rule="evenodd" d="M385 612C534.117 612 655 491.117 655 342C655 192.883 534.117 72.0001 385 72.0001C235.883 72.0001 115 192.883 115 342C115 491.117 235.883 612 385 612ZM385 598C526.385 598 641 483.385 641 342C641 200.615 526.385 86.0001 385 86.0001C243.615 86.0001 129 200.615 129 342C129 483.385 243.615 598 385 598Z" fill="white"/>
<path fill-rule="evenodd" clip-rule="evenodd" d="M268.006 569.158C312.684 589.911 406.83 508.252 478.285 386.767C549.741 265.283 571.449 149.976 526.77 129.223C482.092 108.469 387.946 190.128 316.49 311.613C245.034 433.098 223.327 548.405 268.006 569.158ZM271.446 563.308C310.491 581.445 397.803 501.519 466.462 384.789C535.122 268.058 559.128 158.727 520.083 140.591C481.038 122.454 393.726 202.38 325.067 319.11C256.407 435.84 232.4 545.172 271.446 563.308Z" fill="white"/>
<path fill-rule="evenodd" clip-rule="evenodd" d="M255.23 122.223C299.908 101.469 394.054 183.128 465.51 304.613C536.966 426.098 558.673 541.405 513.994 562.158C469.316 582.911 375.17 501.252 303.715 379.767C232.259 258.283 210.551 142.976 255.23 122.223ZM258.67 128.072C297.715 109.936 385.027 189.861 453.686 306.592C522.346 423.322 546.353 532.653 507.307 550.79C468.262 568.927 380.95 489.001 312.291 372.27C243.631 255.54 219.624 146.209 258.67 128.072Z" fill="white"/>
<path fill-rule="evenodd" clip-rule="evenodd" d="M130.323 349.446C134.468 300.358 252.075 259.124 393.005 257.349C533.935 255.573 644.822 293.928 640.676 343.016C636.531 392.105 518.924 433.338 377.994 435.114C237.064 436.89 126.177 398.535 130.323 349.446ZM137.108 349.361C140.731 306.462 253.443 270.302 388.857 268.596C524.272 266.89 631.111 300.284 627.488 343.183C623.866 386.082 511.154 422.242 375.739 423.948C240.325 425.655 133.486 392.261 137.108 349.361Z" fill="white"/>
<path fill-rule="evenodd" clip-rule="evenodd" d="M89.0724 398.452C20.0232 483.659 -11.2099 560.634 13.901 603.252C41.1894 649.565 128.528 644.292 238.766 598.263C238.262 598.228 237.758 598.19 237.253 598.15C226.936 597.332 216.916 595.582 207.269 592.989C115.437 629.292 45.227 633.298 23.4347 596.312C3.25968 562.071 28.6412 499.586 85.3938 427.763C85.4804 425.393 85.6178 423.014 85.807 420.628C86.4064 413.066 87.5066 405.664 89.0724 398.452ZM712.361 94.7569C728.128 121.515 716.072 165.523 682.965 217.756C684.519 227.304 685.246 237.104 685.075 247.073C733.107 177.786 752.101 117.269 730.888 81.2675C705.018 37.3602 625.175 39.8185 523.015 79.4137C526.368 79.4763 529.741 79.6405 533.129 79.9091C543.766 80.7522 554.086 82.5863 564.008 85.3135C638.204 61.4371 693.472 62.6975 712.361 94.7569Z" fill="white"/>
</svg>
