<svg width="300" height="300" viewBox="0 0 300 300" fill="none" xmlns="http://www.w3.org/2000/svg">
<rect x="234" y="217" width="24" height="83" rx="5" fill="#1ABC9C"/>
<rect x="42" y="249" width="24" height="51" rx="5" fill="#1ABC9C"/>
<rect x="74" y="217" width="24" height="83" rx="5" fill="#1ABC9C"/>
<rect x="170" y="199" width="24" height="101" rx="5" fill="#1ABC9C"/>
<rect x="10" y="264" width="24" height="36" rx="5" fill="#1ABC9C"/>
<rect x="138" y="166" width="24" height="134" rx="5" fill="#1ABC9C"/>
<rect x="266" y="236" width="24" height="64" rx="5" fill="#1ABC9C"/>
<path fill-rule="evenodd" clip-rule="evenodd" d="M151.5 62C194.302 62 229 34.2417 229 0H74C74 34.2417 108.698 62 151.5 62Z" fill="#1ABC9C"/>
<circle cx="106" cy="26" r="12" fill="#D9D9D9"/>
<circle cx="198" cy="26" r="12" fill="#D9D9D9"/>
<rect width="14.7958" height="69.3515" transform="matrix(0.796414 0.604752 -0.601389 0.798956 252.707 73.3076)" fill="#1ABC9C"/>
<path d="M219.628 135.096C225.434 136.3 230.656 139.144 234.144 143.002C237.632 146.86 239.101 151.417 238.227 155.67C237.353 159.923 234.209 163.523 229.485 165.68C224.761 167.836 218.845 168.371 213.038 167.167L214.384 160.615C217.818 161.327 221.317 161.011 224.111 159.736C226.905 158.46 228.765 156.331 229.282 153.816C229.798 151.301 228.93 148.606 226.867 146.324C224.804 144.042 221.716 142.36 218.281 141.648L219.628 135.096Z" fill="#1ABC9C"/>
<path d="M217.381 134.229C213.613 129.631 208.674 126.317 203.65 125.016C198.625 123.715 193.927 124.535 190.588 127.294C187.249 130.053 185.544 134.526 185.847 139.729C186.15 144.931 188.437 150.438 192.205 155.036L197.348 150.785C195.12 148.066 193.767 144.809 193.588 141.732C193.409 138.655 194.417 136.01 196.392 134.378C198.366 132.746 201.145 132.262 204.117 133.031C207.088 133.8 210.009 135.76 212.237 138.48L217.381 134.229Z" fill="#1ABC9C"/>
<path fill-rule="evenodd" clip-rule="evenodd" d="M275.278 0L290.746 0.166603L264.059 83.2873L250 78.7337L275.278 0Z" fill="#1ABC9C"/>
<ellipse cx="217.144" cy="134.576" rx="9" ry="9.03952" fill="#16A085"/>
<ellipse cx="258" cy="78.3296" rx="9" ry="9.03952" fill="#16A085"/>
<rect width="14.7722" height="69.1581" transform="matrix(-0.593691 0.804693 0.804693 0.593691 13.8408 143.888)" fill="#1ABC9C"/>
<path d="M63.4201 193.519C57.6134 194.717 52.3916 197.548 48.9035 201.39C45.4154 205.231 43.9467 209.768 44.8206 214.002C45.6944 218.237 48.8392 221.821 53.5631 223.968C58.287 226.115 64.2031 226.648 70.0099 225.449L68.6636 218.926C65.2294 219.635 61.7306 219.32 58.9368 218.05C56.143 216.78 54.2832 214.66 53.7663 212.156C53.2495 209.652 54.1181 206.969 56.181 204.697C58.2439 202.425 61.3322 200.75 64.7664 200.042L63.4201 193.519Z" fill="#1ABC9C"/>
<path d="M65.6671 192.655C69.4344 188.077 74.3737 184.777 79.3983 183.482C84.4229 182.187 89.1213 183.003 92.4599 185.75C95.7985 188.497 97.5037 192.951 97.2006 198.131C96.8974 203.31 94.6106 208.793 90.8433 213.371L85.7 209.139C87.928 206.431 89.2804 203.189 89.4597 200.126C89.639 197.062 88.6305 194.428 86.656 192.804C84.6816 191.179 81.9029 190.696 78.9313 191.462C75.9596 192.228 73.0385 194.18 70.8105 196.887L65.6671 192.655Z" fill="#1ABC9C"/>
<path fill-rule="evenodd" clip-rule="evenodd" d="M0 135.274V71.8052L19.1432 149.705L4.39134 153.144L0 135.274Z" fill="#1ABC9C"/>
<circle cx="9" cy="9" r="9" transform="matrix(-0.958867 0.283855 0.283855 0.958867 71.3315 181.099)" fill="#16A085"/>
<circle cx="9" cy="9" r="9" transform="matrix(-0.958867 0.283855 0.283855 0.958867 17.2598 138)" fill="#16A085"/>
<path d="M121.561 78.6699C122.324 76.016 125.094 74.4833 127.748 75.2464L141.203 79.1153C143.857 79.8784 145.39 82.6485 144.626 85.3024L116.439 183.33C115.675 185.984 112.905 187.517 110.252 186.754L96.7968 182.885C94.1429 182.122 92.6101 179.352 93.3732 176.698L121.561 78.6699Z" fill="#1ABC9C"/>
<rect x="33" y="120.598" width="14.7722" height="81.5031" rx="5" transform="rotate(-81.1799 33 120.598)" fill="#1ABC9C"/>
<path fill-rule="evenodd" clip-rule="evenodd" d="M0 74.8086L32.3903 119.802C34.0035 122.043 37.1282 122.551 39.3693 120.938L43.2423 118.15C45.4834 116.537 45.9923 113.412 44.3789 111.171L0 49.5246V74.8086Z" fill="#1ABC9C"/>
<circle cx="38" cy="114" r="9" fill="#16A085"/>
<circle cx="107" cy="125" r="9" fill="#16A085"/>
<rect x="237" y="161.171" width="24" height="64" rx="5" transform="rotate(-30.4727 237 161.171)" fill="#1ABC9C"/>
<path fill-rule="evenodd" clip-rule="evenodd" d="M299.5 140.588V160.647L275.226 182.945C273.192 184.813 270.029 184.679 268.161 182.646L264.933 179.131C263.064 177.098 263.199 173.935 265.232 172.066L299.5 140.588Z" fill="#1ABC9C"/>
<circle cx="9" cy="9" r="9" transform="matrix(-0.831465 0.555577 0.555577 0.831465 272.966 164)" fill="#16A085"/>
</svg>
